<svg width="373" height="395" viewBox="0 0 373 395" fill="none" 
    xmlns="http://www.w3.org/2000/svg">
    <path fill-rule="evenodd" clip-rule="evenodd" d="M287.732 129.379L287.695 129.262C297.084 139.784 301.907 152.278 302.163 166.743C302.42 181.209 297.597 196.469 287.584 212.476C295.068 206.618 303.71 193.975 313.482 174.692C317.704 213.771 302.019 243.455 266.28 263.785C277.691 262.726 292.84 255.162 311.629 241.067C291.578 289.672 254.712 315.316 201.029 318C149.149 317.986 115.54 286.594 115.566 286.614C94.2363 269.9 79.5609 248.832 71.589 223.507C58.8321 209.48 58.7049 207.975 57.389 202.37C56.0731 196.765 58.2202 195.199 61.9572 189.714C64.4485 186.058 65.0356 180.798 63.7556 174.029C60.5797 169.594 58.7508 162.649 58.2688 153.192C58.2688 148.623 61.2978 143.801 67.3559 138.728C73.4139 133.654 77.1306 129.752 78.4771 127.066C79.5041 125.601 79.9009 119.252 79.6675 108.018C79.6048 96.9843 85.6893 90.9813 97.9211 90.009C116.269 88.5507 126.616 74.6567 132.381 68.3381C136.224 64.1257 141.911 62.0784 149.085 62.039C159.184 61.5624 168.373 65.4603 176.289 73.5043C196.005 72.4775 216.201 77.8312 236.665 89.4293C265.745 106.823 281.615 125.658 284.276 145.842C281.159 172.404 245.721 171.71 178.119 143.752C142.742 153.842 125.349 175.706 125.927 209.345C125.903 240.213 140.741 262.643 170.338 276.613C155.912 262.353 149.769 250.367 151.838 240.441C181.843 276.22 216.021 289.592 254.313 280.562C237.431 281.156 224.059 275.686 213.994 264.072C239.877 263.438 264.31 251.341 287.318 227.656C274.037 238.298 260.138 242.327 245.423 239.793C285.278 208.244 299.381 171.439 287.732 129.379ZM215.397 124.526C218.628 124.526 221.247 121.889 221.247 118.636C221.247 115.383 218.628 112.745 215.397 112.745C212.166 112.745 209.547 115.383 209.547 118.636C209.547 121.889 212.166 124.526 215.397 124.526Z" fill="#852795"/>
    <line x1="183.595" y1="384.384" x2="39.5951" y2="305.384" stroke="#6F207C" stroke-width="10"/>
    <line y1="-5" x2="164.247" y2="-5" transform="matrix(0.87673 -0.480984 -0.480984 -0.87673 186 380)" stroke="#6F207C" stroke-width="10"/>
    <line x1="37.0242" y1="301.491" x2="15.0242" y2="78.4909" stroke="#6F207C" stroke-width="10"/>
    <line x1="15.3272" y1="75.2881" x2="184.327" y2="15.2881" stroke="#6F207C" stroke-width="10"/>
    <line x1="187.657" y1="15.2825" x2="355.657" y2="74.2825" stroke="#6F207C" stroke-width="10"/>
    <line x1="358.971" y1="79.5374" x2="334.971" y2="301.537" stroke="#6F207C" stroke-width="10"/>
    <circle cx="186" cy="380" r="15" fill="#6F207C"/>
    <circle cx="38" cy="302" r="15" fill="#6F207C"/>
    <circle cx="15" cy="77" r="15" fill="#6F207C"/>
    <circle cx="186" cy="15" r="15" fill="#6F207C"/>
    <circle cx="358" cy="77" r="15" fill="#6F207C"/>
    <circle cx="335" cy="303" r="15" fill="#6F207C"/>
</svg>
