<?xml version="1.0" encoding="UTF-8" standalone="no"?>
<!DOCTYPE svg PUBLIC "-//W3C//DTD SVG 1.1//EN" "http://www.w3.org/Graphics/SVG/1.1/DTD/svg11.dtd">
<svg width="100%" height="100%" viewBox="0 0 373 395" version="1.1" xmlns="http://www.w3.org/2000/svg" xmlns:xlink="http://www.w3.org/1999/xlink" xml:space="preserve" xmlns:serif="http://www.serif.com/" style="fill-rule:evenodd;clip-rule:evenodd;">
    <path d="M287.732,129.379L287.695,129.262C297.084,139.784 301.907,152.278 302.163,166.743C302.42,181.209 297.597,196.469 287.584,212.476C295.068,206.618 303.71,193.975 313.482,174.692C317.704,213.771 302.019,243.455 266.28,263.785C277.691,262.726 292.84,255.162 311.629,241.067C291.578,289.672 254.712,315.316 201.029,318C149.149,317.986 115.54,286.594 115.566,286.614C94.236,269.9 79.561,248.832 71.589,223.507C58.832,209.48 58.705,207.975 57.389,202.37C56.073,196.765 58.22,195.199 61.957,189.714C64.448,186.058 65.036,180.798 63.756,174.029C60.58,169.594 58.751,162.649 58.269,153.192C58.269,148.623 61.298,143.801 67.356,138.728C73.414,133.654 77.131,129.752 78.477,127.066C79.504,125.601 79.901,119.252 79.668,108.018C79.605,96.984 85.689,90.981 97.921,90.009C116.269,88.551 126.616,74.657 132.381,68.338C136.224,64.126 141.911,62.078 149.085,62.039C159.184,61.562 168.373,65.46 176.289,73.504C196.005,72.478 216.201,77.831 236.665,89.429C265.745,106.823 281.615,125.658 284.276,145.842C281.159,172.404 245.721,171.71 178.119,143.752C142.742,153.842 125.349,175.706 125.927,209.345C125.903,240.213 140.741,262.643 170.338,276.613C155.912,262.353 149.769,250.367 151.838,240.441C181.843,276.22 216.021,289.592 254.313,280.562C237.431,281.156 224.059,275.686 213.994,264.072C239.877,263.438 264.31,251.341 287.318,227.656C274.037,238.298 260.138,242.327 245.423,239.793C285.278,208.244 299.381,171.439 287.732,129.379ZM215.397,124.526C218.628,124.526 221.247,121.889 221.247,118.636C221.247,115.383 218.628,112.745 215.397,112.745C212.166,112.745 209.547,115.383 209.547,118.636C209.547,121.889 212.166,124.526 215.397,124.526Z" style="fill:rgb(51,51,51);"/>
    <path d="M183.595,384.384L39.595,305.384" style="fill:none;fill-rule:nonzero;stroke:black;stroke-width:10px;"/>
    <g transform="matrix(0.87673,-0.480984,-0.480984,-0.87673,186,380)">
        <path d="M0,-5L164.247,-5" style="fill:none;fill-rule:nonzero;stroke:black;stroke-width:10px;"/>
    </g>
    <path d="M37.024,301.491L15.024,78.491" style="fill:none;fill-rule:nonzero;stroke:black;stroke-width:10px;"/>
    <path d="M15.327,75.288L184.327,15.288" style="fill:none;fill-rule:nonzero;stroke:black;stroke-width:10px;"/>
    <path d="M187.657,15.283L355.657,74.283" style="fill:none;fill-rule:nonzero;stroke:black;stroke-width:10px;"/>
    <path d="M358.971,79.537L334.971,301.537" style="fill:none;fill-rule:nonzero;stroke:black;stroke-width:10px;"/>
    <circle cx="186" cy="380" r="15"/>
    <circle cx="38" cy="302" r="15"/>
    <circle cx="15" cy="77" r="15"/>
    <circle cx="186" cy="15" r="15"/>
    <circle cx="358" cy="77" r="15"/>
    <circle cx="335" cy="303" r="15"/>
</svg>
