<svg width="488" height="520" viewBox="0 0 488 520" fill="none" 
    xmlns="http://www.w3.org/2000/svg">
    <path fill-rule="evenodd" clip-rule="evenodd" d="M275.239 36.0816C276.78 33.1603 277.924 29.9965 278.597 26.6625L436.616 83.013C435.062 85.928 433.904 89.0867 433.216 92.4171L275.239 36.0816ZM458.791 133.742L432.703 359.894C432.861 359.889 433.019 359.886 433.178 359.883C433.363 359.88 433.548 359.879 433.734 359.879C436.811 359.879 439.796 360.272 442.641 361.012L468.725 134.885C468.412 134.893 468.097 134.897 467.781 134.897C464.674 134.897 461.661 134.496 458.791 133.742ZM400.77 407.822C401.98 410.975 403.63 413.91 405.644 416.553L276.997 487.806C275.795 484.65 274.153 481.71 272.145 479.062L400.77 407.822ZM215.855 479.062L87.2605 407.838C86.0615 410.997 84.4222 413.938 82.4177 416.588L211.003 487.806C212.205 484.65 213.847 481.71 215.855 479.062ZM54.2503 360.015C51.1846 360.015 48.2101 360.406 45.374 361.141L19.2601 134.759C19.5785 134.768 19.898 134.772 20.2185 134.772C23.3204 134.772 26.3289 134.372 29.1951 133.621L55.3123 360.031C54.9596 360.021 54.6056 360.015 54.2503 360.015ZM54.8082 92.4085L212.761 36.0815C211.22 33.1602 210.076 29.9965 209.403 26.6624L51.4393 82.9931C52.9839 85.9129 54.1309 89.0754 54.8082 92.4085Z" fill="black"/>
    <path fill-rule="evenodd" clip-rule="evenodd" d="M375.841 170.826L375.793 170.672C388.068 184.428 394.372 200.761 394.707 219.672C395.042 238.584 388.738 258.533 375.648 279.458C385.431 271.801 396.729 255.272 409.504 230.063C415.023 281.152 394.518 319.958 347.797 346.535C362.714 345.15 382.518 335.262 407.081 316.836C380.869 380.377 332.674 413.902 262.494 417.411C194.671 417.392 150.733 376.354 150.768 376.38C122.883 354.529 103.698 326.987 93.2763 293.88C76.5991 275.542 76.4328 273.575 74.7125 266.247C72.9922 258.92 75.7991 256.873 80.6846 249.702C83.9415 244.922 84.709 238.046 83.0356 229.196C78.8837 223.399 76.4928 214.319 75.8627 201.957C75.8627 195.983 79.8226 189.679 87.7423 183.047C95.662 176.414 100.521 171.314 102.281 167.802C103.624 165.887 104.142 157.587 103.837 142.9C103.755 128.476 111.71 120.628 127.7 119.357C151.686 117.45 165.214 99.2867 172.75 91.0264C177.774 85.5196 185.209 82.843 194.587 82.7915C207.789 82.1684 219.802 87.2642 230.151 97.7802C255.926 96.4378 282.328 103.437 309.08 118.599C347.097 141.337 367.845 165.962 371.323 192.348C367.249 227.072 320.92 226.165 232.543 189.616C186.295 202.806 163.557 231.389 164.313 275.365C164.281 315.719 183.679 345.042 222.372 363.306C203.513 344.663 195.481 328.994 198.186 316.017C237.412 362.791 282.093 380.273 332.152 368.468C310.082 369.244 292.6 362.094 279.444 346.91C313.28 346.082 345.221 330.267 375.3 299.304C357.937 313.216 339.768 318.484 320.531 315.17C372.633 273.926 391.07 225.811 375.841 170.826ZM281.277 164.481C285.501 164.481 288.925 161.033 288.925 156.781C288.925 152.528 285.501 149.08 281.277 149.08C277.053 149.08 273.629 152.528 273.629 156.781C273.629 161.033 277.053 164.481 281.277 164.481Z" fill="black"/>
    <circle cx="244" cy="500.367" r="19.6096" fill="black"/>
    <circle cx="54.2503" cy="395.312" r="19.6096" fill="black"/>
    <circle cx="20.2185" cy="99.475" r="19.6096" fill="black"/>
    <circle cx="244" cy="19.6333" r="19.6096" fill="black"/>
    <circle cx="467.781" cy="99.6001" r="19.6096" fill="black"/>
    <circle cx="433.734" cy="395.176" r="19.6096" fill="black"/>
</svg>
